<svg xmlns="http://www.w3.org/2000/svg" xmlns:xlink="http://www.w3.org/1999/xlink" width="1080" zoomAndPan="magnify" viewBox="0 0 810 1012.49997" height="1350" preserveAspectRatio="xMidYMid meet" version="1.0"><defs><g/><clipPath id="8f18b162d5"><path d="M 251 514 L 262 514 L 262 525 L 251 525 Z M 251 514 " clip-rule="nonzero"/></clipPath><clipPath id="7c4c90ab99"><path d="M 190.472656 437.292969 L 330.90625 402.507812 L 363.347656 533.484375 L 222.914062 568.269531 Z M 190.472656 437.292969 " clip-rule="nonzero"/></clipPath><clipPath id="356d2c7e4d"><path d="M 190.472656 437.292969 L 330.90625 402.507812 L 363.347656 533.484375 L 222.914062 568.269531 Z M 190.472656 437.292969 " clip-rule="nonzero"/></clipPath><clipPath id="feb91a5419"><path d="M 190.472656 437.292969 L 330.90625 402.507812 L 363.347656 533.484375 L 222.914062 568.269531 Z M 190.472656 437.292969 " clip-rule="nonzero"/></clipPath><clipPath id="35e6947d74"><path d="M 229 515 L 265 515 L 265 559 L 229 559 Z M 229 515 " clip-rule="nonzero"/></clipPath><clipPath id="db1b61c332"><path d="M 190.472656 437.292969 L 330.90625 402.507812 L 363.347656 533.484375 L 222.914062 568.269531 Z M 190.472656 437.292969 " clip-rule="nonzero"/></clipPath><clipPath id="be98af6ed3"><path d="M 190.472656 437.292969 L 330.90625 402.507812 L 363.347656 533.484375 L 222.914062 568.269531 Z M 190.472656 437.292969 " clip-rule="nonzero"/></clipPath><clipPath id="0766385c9e"><path d="M 190.472656 437.292969 L 330.90625 402.507812 L 363.347656 533.484375 L 222.914062 568.269531 Z M 190.472656 437.292969 " clip-rule="nonzero"/></clipPath><clipPath id="48e64b6a37"><path d="M 246 408 L 352 408 L 352 537 L 246 537 Z M 246 408 " clip-rule="nonzero"/></clipPath><clipPath id="66678adaec"><path d="M 190.472656 437.292969 L 330.90625 402.507812 L 363.347656 533.484375 L 222.914062 568.269531 Z M 190.472656 437.292969 " clip-rule="nonzero"/></clipPath><clipPath id="9e76b8bc62"><path d="M 190.472656 437.292969 L 330.90625 402.507812 L 363.347656 533.484375 L 222.914062 568.269531 Z M 190.472656 437.292969 " clip-rule="nonzero"/></clipPath><clipPath id="3b8a8695e3"><path d="M 190.472656 437.292969 L 330.90625 402.507812 L 363.347656 533.484375 L 222.914062 568.269531 Z M 190.472656 437.292969 " clip-rule="nonzero"/></clipPath><clipPath id="c04e16403b"><path d="M 205 479 L 223 479 L 223 517 L 205 517 Z M 205 479 " clip-rule="nonzero"/></clipPath><clipPath id="23314c586f"><path d="M 190.472656 437.292969 L 330.90625 402.507812 L 363.347656 533.484375 L 222.914062 568.269531 Z M 190.472656 437.292969 " clip-rule="nonzero"/></clipPath><clipPath id="86fa0adfc6"><path d="M 190.472656 437.292969 L 330.90625 402.507812 L 363.347656 533.484375 L 222.914062 568.269531 Z M 190.472656 437.292969 " clip-rule="nonzero"/></clipPath><clipPath id="fd8dcccd5a"><path d="M 190.472656 437.292969 L 330.90625 402.507812 L 363.347656 533.484375 L 222.914062 568.269531 Z M 190.472656 437.292969 " clip-rule="nonzero"/></clipPath><clipPath id="1066013c51"><path d="M 215 469 L 255 469 L 255 518 L 215 518 Z M 215 469 " clip-rule="nonzero"/></clipPath><clipPath id="524889fc3d"><path d="M 190.472656 437.292969 L 330.90625 402.507812 L 363.347656 533.484375 L 222.914062 568.269531 Z M 190.472656 437.292969 " clip-rule="nonzero"/></clipPath><clipPath id="d887506145"><path d="M 190.472656 437.292969 L 330.90625 402.507812 L 363.347656 533.484375 L 222.914062 568.269531 Z M 190.472656 437.292969 " clip-rule="nonzero"/></clipPath><clipPath id="085d5edbbb"><path d="M 190.472656 437.292969 L 330.90625 402.507812 L 363.347656 533.484375 L 222.914062 568.269531 Z M 190.472656 437.292969 " clip-rule="nonzero"/></clipPath><clipPath id="f549ecb424"><path d="M 319 463 L 326 463 L 326 481 L 319 481 Z M 319 463 " clip-rule="nonzero"/></clipPath><clipPath id="d6fce97470"><path d="M 190.472656 437.292969 L 330.90625 402.507812 L 363.347656 533.484375 L 222.914062 568.269531 Z M 190.472656 437.292969 " clip-rule="nonzero"/></clipPath><clipPath id="29bb968be5"><path d="M 190.472656 437.292969 L 330.90625 402.507812 L 363.347656 533.484375 L 222.914062 568.269531 Z M 190.472656 437.292969 " clip-rule="nonzero"/></clipPath><clipPath id="be01eecd78"><path d="M 190.472656 437.292969 L 330.90625 402.507812 L 363.347656 533.484375 L 222.914062 568.269531 Z M 190.472656 437.292969 " clip-rule="nonzero"/></clipPath></defs><g fill="#e38235" fill-opacity="1"><g transform="translate(76.121377, 544.14491)"><g><path d="M 44.203125 0.984375 C 37.015625 0.984375 30.578125 -0.179688 24.890625 -2.515625 C 19.203125 -4.847656 14.65625 -8.296875 11.25 -12.859375 C 7.851562 -17.429688 6.0625 -22.9375 5.875 -29.375 L 31.328125 -29.375 C 31.703125 -25.738281 32.960938 -22.960938 35.109375 -21.046875 C 37.253906 -19.140625 40.050781 -18.1875 43.5 -18.1875 C 47.039062 -18.1875 49.835938 -19 51.890625 -20.625 C 53.941406 -22.257812 54.96875 -24.519531 54.96875 -27.40625 C 54.96875 -29.832031 54.148438 -31.835938 52.515625 -33.421875 C 50.878906 -35.003906 48.875 -36.304688 46.5 -37.328125 C 44.125 -38.359375 40.742188 -39.53125 36.359375 -40.84375 C 30.023438 -42.800781 24.851562 -44.757812 20.84375 -46.71875 C 16.832031 -48.675781 13.378906 -51.566406 10.484375 -55.390625 C 7.597656 -59.210938 6.15625 -64.195312 6.15625 -70.34375 C 6.15625 -79.488281 9.460938 -86.644531 16.078125 -91.8125 C 22.703125 -96.988281 31.328125 -99.578125 41.953125 -99.578125 C 52.773438 -99.578125 61.492188 -96.988281 68.109375 -91.8125 C 74.734375 -86.644531 78.273438 -79.441406 78.734375 -70.203125 L 52.859375 -70.203125 C 52.679688 -73.378906 51.519531 -75.875 49.375 -77.6875 C 47.226562 -79.507812 44.476562 -80.421875 41.125 -80.421875 C 38.226562 -80.421875 35.894531 -79.648438 34.125 -78.109375 C 32.351562 -76.566406 31.46875 -74.351562 31.46875 -71.46875 C 31.46875 -68.300781 32.957031 -65.828125 35.9375 -64.046875 C 38.925781 -62.273438 43.59375 -60.367188 49.9375 -58.328125 C 56.269531 -56.179688 61.414062 -54.128906 65.375 -52.171875 C 69.34375 -50.210938 72.769531 -47.367188 75.65625 -43.640625 C 78.550781 -39.910156 80 -35.109375 80 -29.234375 C 80 -23.640625 78.578125 -18.554688 75.734375 -13.984375 C 72.890625 -9.421875 68.765625 -5.785156 63.359375 -3.078125 C 57.953125 -0.367188 51.566406 0.984375 44.203125 0.984375 Z M 44.203125 0.984375 "/></g></g></g><g fill="#e38235" fill-opacity="1"><g transform="translate(162.138017, 544.14491)"><g><path d="M 32.59375 -98.1875 L 32.59375 0 L 8.671875 0 L 8.671875 -98.1875 Z M 32.59375 -98.1875 "/></g></g></g><g fill="#e38235" fill-opacity="1"><g transform="translate(348.039074, 543.668719)"><g><path d="M 69.671875 -17.3125 L 33.09375 -17.3125 L 27.21875 0 L 2.234375 0 L 37.6875 -98 L 65.34375 -98 L 100.796875 0 L 75.53125 0 Z M 63.515625 -35.734375 L 51.375 -71.625 L 39.375 -35.734375 Z M 63.515625 -35.734375 "/></g></g></g><g fill="#e38235" fill-opacity="1"><g transform="translate(450.929362, 543.668719)"><g><path d="M 44.109375 0.984375 C 36.941406 0.984375 30.519531 -0.175781 24.84375 -2.5 C 19.164062 -4.832031 14.628906 -8.28125 11.234375 -12.84375 C 7.835938 -17.40625 6.046875 -22.894531 5.859375 -29.3125 L 31.265625 -29.3125 C 31.640625 -25.6875 32.894531 -22.921875 35.03125 -21.015625 C 37.175781 -19.109375 39.972656 -18.15625 43.421875 -18.15625 C 46.953125 -18.15625 49.738281 -18.96875 51.78125 -20.59375 C 53.832031 -22.21875 54.859375 -24.472656 54.859375 -27.359375 C 54.859375 -29.785156 54.046875 -31.785156 52.421875 -33.359375 C 50.796875 -34.941406 48.796875 -36.242188 46.421875 -37.265625 C 44.046875 -38.296875 40.671875 -39.460938 36.296875 -40.765625 C 29.972656 -42.722656 24.804688 -44.675781 20.796875 -46.625 C 16.796875 -48.582031 13.351562 -51.46875 10.46875 -55.28125 C 7.582031 -59.101562 6.140625 -64.082031 6.140625 -70.21875 C 6.140625 -79.34375 9.441406 -86.488281 16.046875 -91.65625 C 22.660156 -96.820312 31.269531 -99.40625 41.875 -99.40625 C 52.675781 -99.40625 61.378906 -96.820312 67.984375 -91.65625 C 74.597656 -86.488281 78.132812 -79.296875 78.59375 -70.078125 L 52.765625 -70.078125 C 52.585938 -73.242188 51.425781 -75.734375 49.28125 -77.546875 C 47.144531 -79.367188 44.398438 -80.28125 41.046875 -80.28125 C 38.160156 -80.28125 35.832031 -79.507812 34.0625 -77.96875 C 32.289062 -76.4375 31.40625 -74.226562 31.40625 -71.34375 C 31.40625 -68.175781 32.894531 -65.707031 35.875 -63.9375 C 38.851562 -62.164062 43.507812 -60.257812 49.84375 -58.21875 C 56.164062 -56.070312 61.304688 -54.019531 65.265625 -52.0625 C 69.222656 -50.113281 72.644531 -47.273438 75.53125 -43.546875 C 78.414062 -39.828125 79.859375 -35.035156 79.859375 -29.171875 C 79.859375 -23.585938 78.4375 -18.515625 75.59375 -13.953125 C 72.757812 -9.398438 68.640625 -5.769531 63.234375 -3.0625 C 57.835938 -0.363281 51.460938 0.984375 44.109375 0.984375 Z M 44.109375 0.984375 "/></g></g></g><g fill="#e38235" fill-opacity="1"><g transform="translate(536.787603, 543.668719)"><g><path d="M 65.484375 0 L 32.53125 -43.28125 L 32.53125 0 L 8.65625 0 L 8.65625 -98 L 32.53125 -98 L 32.53125 -55 L 65.203125 -98 L 93.265625 -98 L 55.28125 -49.984375 L 94.65625 0 Z M 65.484375 0 "/></g></g></g><g fill="#e38235" fill-opacity="1"><g transform="translate(634.093608, 543.668719)"><g><path d="M 69.671875 -17.3125 L 33.09375 -17.3125 L 27.21875 0 L 2.234375 0 L 37.6875 -98 L 65.34375 -98 L 100.796875 0 L 75.53125 0 Z M 63.515625 -35.734375 L 51.375 -71.625 L 39.375 -35.734375 Z M 63.515625 -35.734375 "/></g></g></g><g clip-path="url(#8f18b162d5)"><g clip-path="url(#7c4c90ab99)"><g clip-path="url(#356d2c7e4d)"><g clip-path="url(#feb91a5419)"><path fill="#000000" d="M 251.585938 515.171875 C 252.785156 518.304688 254.253906 521.566406 255.835938 524.789062 L 261.292969 523.4375 L 254.789062 514.378906 Z M 251.585938 515.171875 " fill-opacity="1" fill-rule="nonzero"/></g></g></g></g><g clip-path="url(#35e6947d74)"><g clip-path="url(#db1b61c332)"><g clip-path="url(#be98af6ed3)"><g clip-path="url(#0766385c9e)"><path fill="#000000" d="M 254.214844 528.308594 C 253.976562 527.847656 253.75 527.394531 253.523438 526.925781 C 253.296875 526.460938 253.074219 526.007812 252.84375 525.542969 C 251.902344 523.601562 251.011719 521.664062 250.183594 519.730469 C 249.628906 518.441406 249.113281 517.164062 248.640625 515.914062 L 247.738281 516.140625 L 246.269531 516.503906 L 233.425781 519.683594 C 232.253906 519.976562 231.082031 520.175781 229.914062 520.292969 C 230.257812 520.976562 230.640625 521.765625 231.058594 522.65625 C 232.65625 525.984375 234.433594 529.878906 235.617188 532.457031 C 236.136719 533.59375 236.542969 534.488281 236.695312 534.785156 C 237.957031 537.417969 239.207031 540.101562 240.425781 542.703125 C 241.855469 545.765625 243.328125 548.941406 244.824219 552.023438 C 245.234375 552.867188 245.925781 553.898438 246.902344 555.125 C 250.179688 559.253906 256.285156 560.003906 260.511719 556.796875 C 264.515625 553.753906 265.570312 548.238281 262.972656 543.949219 C 260.257812 539.480469 257.09375 533.992188 254.214844 528.308594 Z M 254.214844 528.308594 " fill-opacity="1" fill-rule="nonzero"/></g></g></g></g><g clip-path="url(#48e64b6a37)"><g clip-path="url(#66678adaec)"><g clip-path="url(#9e76b8bc62)"><g clip-path="url(#3b8a8695e3)"><path fill="#000000" d="M 324.96875 418.113281 C 316.875 408.429688 310.4375 407.578125 306.457031 408.566406 C 304.566406 409.035156 302.816406 410.011719 301.269531 411.476562 C 298.542969 414.050781 296.457031 418.097656 295.042969 423.503906 C 294.5 425.597656 294.050781 427.910156 293.730469 430.386719 C 293.691406 430.679688 293.574219 430.957031 293.367188 431.183594 C 282.421875 443.730469 269.015625 453.695312 256.144531 462.597656 C 253.429688 464.476562 250.691406 466.335938 248.363281 467.90625 C 248.351562 467.90625 248.339844 467.921875 248.328125 467.925781 C 248.308594 467.941406 248.296875 467.945312 248.273438 467.949219 C 248.253906 467.96875 248.230469 467.972656 248.199219 467.996094 C 248.175781 468 248.164062 468.015625 248.140625 468.019531 C 248.117188 468.027344 248.085938 468.046875 248.0625 468.054688 C 248.050781 468.054688 248.027344 468.0625 248.019531 468.078125 C 247.972656 468.089844 247.925781 468.113281 247.878906 468.125 C 247.859375 468.140625 247.808594 468.179688 247.722656 468.285156 C 247.6875 468.34375 247.628906 468.421875 247.582031 468.519531 C 247.5625 468.550781 247.546875 468.589844 247.53125 468.621094 C 247.511719 468.648438 247.496094 468.691406 247.472656 468.746094 C 247.433594 468.832031 247.394531 468.925781 247.359375 469.035156 C 247.351562 469.0625 247.335938 469.089844 247.328125 469.117188 C 247.324219 469.144531 247.308594 469.183594 247.300781 469.210938 C 247.148438 469.695312 246.996094 470.390625 246.878906 471.375 C 246.859375 471.542969 246.847656 471.707031 246.828125 471.875 C 246.605469 474.449219 246.789062 477.808594 247.324219 481.574219 C 247.332031 481.597656 247.339844 481.632812 247.332031 481.660156 C 247.355469 481.839844 247.386719 482.03125 247.421875 482.210938 C 247.445312 482.367188 247.472656 482.519531 247.496094 482.675781 C 247.511719 482.734375 247.515625 482.796875 247.53125 482.855469 C 247.605469 483.308594 247.679688 483.761719 247.753906 484.214844 C 247.933594 485.238281 248.144531 486.292969 248.371094 487.351562 C 248.417969 487.589844 248.472656 487.824219 248.523438 488.074219 C 248.535156 488.121094 248.546875 488.167969 248.558594 488.214844 C 248.648438 488.625 248.746094 489.023438 248.835938 489.4375 C 248.90625 489.71875 248.976562 489.996094 249.042969 490.277344 C 250.878906 497.6875 253.46875 504.3125 255.964844 508.003906 C 256.378906 508.621094 256.742188 509.078125 257.0625 509.421875 C 257.144531 509.5 257.214844 509.582031 257.28125 509.652344 C 257.332031 509.703125 257.382812 509.75 257.429688 509.789062 C 257.753906 510.09375 257.988281 510.246094 258.148438 510.332031 C 258.175781 510.347656 258.203125 510.355469 258.234375 510.371094 C 258.300781 510.394531 258.339844 510.40625 258.351562 510.40625 C 258.351562 510.40625 258.363281 510.402344 258.363281 510.402344 C 258.410156 510.390625 258.457031 510.378906 258.507812 510.378906 C 258.519531 510.375 258.53125 510.371094 258.542969 510.371094 C 258.578125 510.359375 258.617188 510.363281 258.65625 510.367188 C 258.667969 510.363281 258.667969 510.363281 258.679688 510.359375 C 258.753906 510.355469 258.816406 510.363281 258.882812 510.375 C 261.671875 510.675781 264.964844 511.039062 268.238281 511.433594 C 283.765625 513.300781 300.285156 515.855469 315.824219 521.84375 C 316.097656 521.949219 316.34375 522.136719 316.515625 522.378906 C 317.957031 524.417969 319.433594 526.253906 320.886719 527.855469 C 324.664062 531.976562 328.398438 534.578125 332.011719 535.582031 C 333.925781 536.113281 335.800781 536.195312 337.578125 535.832031 L 337.625 535.820312 C 337.730469 535.792969 337.847656 535.761719 337.953125 535.738281 C 341.933594 534.75 347.234375 530.992188 349.871094 518.652344 C 351.246094 512.1875 351.703125 504.0625 351.179688 495.164062 C 350.628906 485.898438 349.105469 476.125 346.628906 466.121094 C 344.148438 456.113281 340.945312 446.75 337.097656 438.3125 C 333.410156 430.160156 329.214844 423.1875 324.96875 418.113281 Z M 344.015625 517.394531 C 342.488281 524.554688 339.753906 529.117188 336.515625 529.921875 C 336.457031 529.9375 336.398438 529.949219 336.339844 529.964844 C 335.496094 530.136719 334.613281 530.09375 333.632812 529.816406 C 331.160156 529.125 328.277344 527.042969 325.320312 523.8125 C 318.761719 516.644531 312.507812 504.789062 307.714844 490.761719 L 322.621094 483.234375 C 322.125 482.945312 321.628906 482.546875 321.148438 482.019531 C 319.488281 480.195312 318.011719 477.058594 317.109375 473.40625 C 316.203125 469.757812 316.042969 466.292969 316.660156 463.90625 C 316.839844 463.214844 317.082031 462.632812 317.398438 462.144531 L 300.699219 462.441406 C 298.394531 447.800781 298.398438 434.394531 300.84375 424.996094 C 301.949219 420.75 303.527344 417.574219 305.394531 415.796875 C 306.191406 415.039062 307.011719 414.578125 307.902344 414.355469 C 311.128906 413.554688 315.6875 416.3125 320.386719 421.945312 C 328.53125 431.691406 336.164062 448.726562 340.824219 467.546875 C 345.46875 486.34375 346.671875 504.984375 344.015625 517.394531 Z M 344.015625 517.394531 " fill-opacity="1" fill-rule="nonzero"/></g></g></g></g><g clip-path="url(#c04e16403b)"><g clip-path="url(#23314c586f)"><g clip-path="url(#86fa0adfc6)"><g clip-path="url(#fd8dcccd5a)"><path fill="#000000" d="M 212.945312 479.359375 C 207.097656 484.570312 204.246094 492.769531 206.25 500.867188 C 208.257812 508.964844 214.589844 514.871094 222.199219 516.761719 C 218.902344 511.65625 216.433594 506.105469 214.832031 500.242188 C 212.988281 493.507812 212.351562 486.363281 212.945312 479.359375 Z M 212.945312 479.359375 " fill-opacity="1" fill-rule="nonzero"/></g></g></g></g><g clip-path="url(#1066013c51)"><g clip-path="url(#524889fc3d)"><g clip-path="url(#d887506145)"><g clip-path="url(#085d5edbbb)"><path fill="#000000" d="M 246.996094 513.203125 L 249.074219 512.691406 L 250.542969 512.328125 L 254.6875 511.300781 C 254.636719 511.238281 254.582031 511.175781 254.53125 511.117188 C 254.527344 511.105469 254.511719 511.09375 254.507812 511.082031 C 254.457031 511.023438 254.402344 510.949219 254.34375 510.875 C 254.328125 510.855469 254.3125 510.835938 254.292969 510.8125 C 254.242188 510.753906 254.183594 510.679688 254.128906 510.605469 C 254.113281 510.597656 254.109375 510.574219 254.09375 510.566406 C 254.035156 510.480469 253.964844 510.398438 253.90625 510.3125 C 253.890625 510.292969 253.871094 510.273438 253.867188 510.25 C 253.8125 510.175781 253.769531 510.113281 253.714844 510.039062 C 253.695312 510.019531 253.675781 509.984375 253.660156 509.964844 C 253.597656 509.867188 253.523438 509.773438 253.464844 509.679688 C 250.785156 505.707031 248.035156 498.726562 246.117188 490.992188 C 244.382812 483.980469 243.535156 477.199219 243.78125 472.441406 C 243.796875 472.117188 243.820312 471.800781 243.84375 471.496094 C 243.855469 471.34375 243.867188 471.191406 243.890625 471.035156 C 243.890625 471.035156 243.890625 471.035156 243.890625 471.023438 C 243.898438 470.910156 243.910156 470.808594 243.929688 470.691406 C 243.9375 470.664062 243.941406 470.625 243.945312 470.601562 C 243.960938 470.511719 243.964844 470.421875 243.980469 470.332031 C 243.984375 470.304688 243.980469 470.28125 243.988281 470.265625 C 244 470.164062 244.019531 470.046875 244.046875 469.941406 C 244.042969 469.929688 244.050781 469.917969 244.046875 469.90625 C 244.0625 469.8125 244.078125 469.722656 244.09375 469.632812 C 244.097656 469.605469 244.105469 469.578125 244.109375 469.554688 C 244.125 469.464844 244.152344 469.371094 244.167969 469.277344 C 244.164062 469.265625 244.164062 469.265625 244.171875 469.253906 C 244.191406 469.171875 244.207031 469.082031 244.222656 469.003906 L 222.222656 474.453125 C 220.0625 474.988281 218.066406 475.832031 216.253906 476.914062 C 215.253906 484.402344 215.761719 492.175781 217.753906 499.421875 C 219.390625 505.425781 221.996094 511.0625 225.492188 516.222656 C 225.746094 516.59375 226.003906 516.976562 226.269531 517.34375 C 226.367188 517.347656 226.460938 517.359375 226.558594 517.359375 C 228.574219 517.445312 230.640625 517.242188 232.707031 516.730469 L 246.996094 513.191406 Z M 246.996094 513.203125 " fill-opacity="1" fill-rule="nonzero"/></g></g></g></g><g clip-path="url(#f549ecb424)"><g clip-path="url(#d6fce97470)"><g clip-path="url(#29bb968be5)"><g clip-path="url(#be01eecd78)"><path fill="#000000" d="M 320.082031 463.578125 C 320.011719 463.644531 319.777344 463.914062 319.578125 464.660156 C 319.089844 466.519531 319.265625 469.59375 320.03125 472.683594 C 320.796875 475.773438 322.078125 478.574219 323.375 479.992188 C 323.902344 480.566406 324.21875 480.6875 324.3125 480.714844 C 324.3125 480.714844 324.324219 480.710938 324.324219 480.710938 C 324.441406 480.621094 324.695312 480.246094 324.886719 479.355469 C 325.300781 477.453125 325.105469 474.558594 324.375 471.609375 C 323.644531 468.660156 322.464844 466.007812 321.210938 464.515625 C 320.640625 463.8125 320.226562 463.605469 320.082031 463.578125 Z M 320.082031 463.578125 " fill-opacity="1" fill-rule="nonzero"/></g></g></g></g></svg>